{
	"patcher" : 	{
		"fileversion" : 1,
		"appversion" : 		{
			"major" : 8,
			"minor" : 1,
			"revision" : 6,
			"architecture" : "x64",
			"modernui" : 1
		}
,
		"classnamespace" : "box",
		"rect" : [ 8.0, 47.0, 1409.0, 690.0 ],
		"bglocked" : 0,
		"openinpresentation" : 1,
		"default_fontsize" : 14.0,
		"default_fontface" : 1,
		"default_fontname" : "Monaco",
		"gridonopen" : 1,
		"gridsize" : [ 15.0, 15.0 ],
		"gridsnaponopen" : 1,
		"objectsnaponopen" : 1,
		"statusbarvisible" : 2,
		"toolbarvisible" : 0,
		"lefttoolbarpinned" : 0,
		"toptoolbarpinned" : 0,
		"righttoolbarpinned" : 0,
		"bottomtoolbarpinned" : 0,
		"toolbars_unpinned_last_save" : 15,
		"tallnewobj" : 0,
		"boxanimatetime" : 200,
		"enablehscroll" : 1,
		"enablevscroll" : 1,
		"devicewidth" : 0.0,
		"description" : "",
		"digest" : "",
		"tags" : "",
		"style" : "Connor",
		"subpatcher_template" : "",
		"assistshowspatchername" : 0,
		"title" : "Color Filtering Explained",
		"boxes" : [ 			{
				"box" : 				{
					"bgoncolor" : [ 0.119753256440163, 0.579624772071838, 0.575239777565002, 1.0 ],
					"fontsize" : 20.0,
					"id" : "obj-123",
					"maxclass" : "textbutton",
					"mode" : 1,
					"numinlets" : 1,
					"numoutlets" : 3,
					"outlettype" : [ "", "", "int" ],
					"parameter_enable" : 0,
					"patching_rect" : [ 396.0, 32.0, 100.0, 20.0 ],
					"presentation" : 1,
					"presentation_rect" : [ 31.0, 5.0, 268.0, 53.0 ],
					"text" : "Start Demo",
					"textcolor" : [ 1.0, 1.0, 1.0, 1.0 ],
					"texton" : "Stop Demo",
					"textoncolor" : [ 1.0, 1.0, 1.0, 1.0 ],
					"textovercolor" : [ 0.494, 0.024, 0.024, 1.0 ],
					"usetextovercolor" : 1
				}

			}
, 			{
				"box" : 				{
					"bgcolor" : [ 0.847331, 0.751866, 0.521653, 1.0 ],
					"fontlink" : 1,
					"fontsize" : 18.0,
					"id" : "obj-122",
					"ignoreclick" : 1,
					"maxclass" : "textbutton",
					"numinlets" : 1,
					"numoutlets" : 3,
					"outlettype" : [ "", "", "int" ],
					"parameter_enable" : 0,
					"patching_rect" : [ 0.0, 347.0, 26.8017578125, 30.5 ],
					"presentation" : 1,
					"presentation_rect" : [ 4.0, 406.0, 26.8017578125, 30.5 ],
					"rounded" : 100.0,
					"text" : "3",
					"textoncolor" : [ 0.0, 0.0, 0.0, 1.0 ]
				}

			}
, 			{
				"box" : 				{
					"bgcolor" : [ 0.847331, 0.751866, 0.521653, 1.0 ],
					"fontlink" : 1,
					"fontsize" : 18.0,
					"id" : "obj-121",
					"ignoreclick" : 1,
					"maxclass" : "textbutton",
					"numinlets" : 1,
					"numoutlets" : 3,
					"outlettype" : [ "", "", "int" ],
					"parameter_enable" : 0,
					"patching_rect" : [ 3.0, 80.0, 26.8017578125, 30.5 ],
					"presentation" : 1,
					"presentation_rect" : [ 4.0, 141.5, 26.8017578125, 30.5 ],
					"rounded" : 100.0,
					"text" : "2",
					"textoncolor" : [ 0.0, 0.0, 0.0, 1.0 ]
				}

			}
, 			{
				"box" : 				{
					"bgcolor" : [ 0.847331, 0.751866, 0.521653, 1.0 ],
					"fontlink" : 1,
					"fontsize" : 18.0,
					"id" : "obj-120",
					"ignoreclick" : 1,
					"maxclass" : "textbutton",
					"numinlets" : 1,
					"numoutlets" : 3,
					"outlettype" : [ "", "", "int" ],
					"parameter_enable" : 0,
					"patching_rect" : [ 108.0, 659.0, 26.8017578125, 30.5 ],
					"presentation" : 1,
					"presentation_rect" : [ 4.0, 17.0, 26.8017578125, 30.5 ],
					"rounded" : 100.0,
					"text" : "1",
					"textoncolor" : [ 0.0, 0.0, 0.0, 1.0 ]
				}

			}
, 			{
				"box" : 				{
					"attr" : "invert",
					"displaymode" : 8,
					"id" : "obj-66",
					"lock" : 1,
					"maxclass" : "attrui",
					"numinlets" : 1,
					"numoutlets" : 1,
					"outlettype" : [ "" ],
					"patching_rect" : [ 865.0, 1011.0, 182.0, 26.0 ],
					"presentation" : 1,
					"presentation_rect" : [ 1219.0, 540.0, 182.0, 26.0 ],
					"text_width" : 110.0
				}

			}
, 			{
				"box" : 				{
					"id" : "obj-116",
					"linecount" : 7,
					"maxclass" : "comment",
					"numinlets" : 1,
					"numoutlets" : 0,
					"patching_rect" : [ 1039.0, 565.0, 219.0, 129.0 ],
					"presentation" : 1,
					"presentation_linecount" : 4,
					"presentation_rect" : [ 1038.0, 567.0, 367.0, 76.0 ],
					"text" : "The filter invert allows you to swap between modes where you can perform a \"green screen\" effect and selecting and showing only one single color range.",
					"textcolor" : [ 1.0, 1.0, 1.0, 1.0 ]
				}

			}
, 			{
				"box" : 				{
					"angle" : 270.0,
					"bgcolor" : [ 0.125771552324295, 0.566736698150635, 0.55782812833786, 1.0 ],
					"id" : "obj-117",
					"maxclass" : "panel",
					"mode" : 0,
					"numinlets" : 1,
					"numoutlets" : 0,
					"patching_rect" : [ 1039.0, 567.0, 128.0, 128.0 ],
					"presentation" : 1,
					"presentation_rect" : [ 1038.0, 569.0, 367.0, 74.0 ],
					"proportion" : 0.5,
					"rounded" : 0
				}

			}
, 			{
				"box" : 				{
					"fontsize" : 18.0,
					"id" : "obj-118",
					"maxclass" : "comment",
					"numinlets" : 1,
					"numoutlets" : 0,
					"patching_rect" : [ 1039.0, 536.0, 160.0, 29.0 ],
					"presentation" : 1,
					"presentation_rect" : [ 1038.0, 538.0, 351.0, 29.0 ],
					"text" : "Filter Invert",
					"textcolor" : [ 1.0, 1.0, 1.0, 1.0 ]
				}

			}
, 			{
				"box" : 				{
					"id" : "obj-119",
					"maxclass" : "panel",
					"numinlets" : 1,
					"numoutlets" : 0,
					"patching_rect" : [ 1039.0, 536.0, 128.0, 128.0 ],
					"presentation" : 1,
					"presentation_rect" : [ 1038.0, 538.0, 367.0, 29.0 ],
					"rounded" : 0
				}

			}
, 			{
				"box" : 				{
					"attr" : "threshold",
					"id" : "obj-33",
					"lock" : 1,
					"maxclass" : "attrui",
					"numinlets" : 1,
					"numoutlets" : 1,
					"outlettype" : [ "" ],
					"patching_rect" : [ 673.0, 1030.0, 182.0, 26.0 ],
					"presentation" : 1,
					"presentation_rect" : [ 1219.0, 416.0, 182.0, 26.0 ],
					"text_width" : 110.0
				}

			}
, 			{
				"box" : 				{
					"id" : "obj-112",
					"linecount" : 9,
					"maxclass" : "comment",
					"numinlets" : 1,
					"numoutlets" : 0,
					"patching_rect" : [ 1031.0, 555.0, 210.0, 164.0 ],
					"presentation" : 1,
					"presentation_linecount" : 5,
					"presentation_rect" : [ 1038.0, 443.0, 367.0, 94.0 ],
					"text" : "Threshold is the maximum difference between the reference color and the pixel value for filtering to be applied. The threshold is applied to the length of the adjusted difference vector.",
					"textcolor" : [ 1.0, 1.0, 1.0, 1.0 ]
				}

			}
, 			{
				"box" : 				{
					"angle" : 270.0,
					"bgcolor" : [ 0.125771552324295, 0.566736698150635, 0.55782812833786, 1.0 ],
					"id" : "obj-113",
					"maxclass" : "panel",
					"mode" : 0,
					"numinlets" : 1,
					"numoutlets" : 0,
					"patching_rect" : [ 1031.0, 557.0, 128.0, 128.0 ],
					"presentation" : 1,
					"presentation_rect" : [ 1038.0, 445.0, 367.0, 92.0 ],
					"proportion" : 0.5,
					"rounded" : 0
				}

			}
, 			{
				"box" : 				{
					"fontsize" : 18.0,
					"id" : "obj-114",
					"maxclass" : "comment",
					"numinlets" : 1,
					"numoutlets" : 0,
					"patching_rect" : [ 1031.0, 526.0, 160.0, 29.0 ],
					"presentation" : 1,
					"presentation_rect" : [ 1038.0, 414.0, 351.0, 29.0 ],
					"text" : "Threshold",
					"textcolor" : [ 1.0, 1.0, 1.0, 1.0 ]
				}

			}
, 			{
				"box" : 				{
					"id" : "obj-115",
					"maxclass" : "panel",
					"numinlets" : 1,
					"numoutlets" : 0,
					"patching_rect" : [ 1031.0, 526.0, 128.0, 128.0 ],
					"presentation" : 1,
					"presentation_rect" : [ 1038.0, 414.0, 367.0, 29.0 ],
					"rounded" : 0
				}

			}
, 			{
				"box" : 				{
					"attr" : "hueTrack",
					"displaymode" : 8,
					"id" : "obj-30",
					"lock" : 1,
					"maxclass" : "attrui",
					"numinlets" : 1,
					"numoutlets" : 1,
					"outlettype" : [ "" ],
					"patching_rect" : [ 865.0, 920.0, 182.0, 26.0 ],
					"presentation" : 1,
					"presentation_rect" : [ 1217.0, 288.0, 182.0, 26.0 ],
					"text_width" : 110.0
				}

			}
, 			{
				"box" : 				{
					"attr" : "satTrack",
					"displaymode" : 8,
					"id" : "obj-31",
					"lock" : 1,
					"maxclass" : "attrui",
					"numinlets" : 1,
					"numoutlets" : 1,
					"outlettype" : [ "" ],
					"patching_rect" : [ 865.0, 948.0, 182.0, 26.0 ],
					"presentation" : 1,
					"presentation_rect" : [ 1217.0, 314.0, 182.0, 26.0 ],
					"text_width" : 110.0
				}

			}
, 			{
				"box" : 				{
					"attr" : "lumaTrack",
					"displaymode" : 8,
					"id" : "obj-32",
					"lock" : 1,
					"maxclass" : "attrui",
					"numinlets" : 1,
					"numoutlets" : 1,
					"outlettype" : [ "" ],
					"patching_rect" : [ 865.0, 976.0, 182.0, 26.0 ],
					"presentation" : 1,
					"presentation_rect" : [ 1217.0, 340.0, 182.0, 26.0 ],
					"text_width" : 110.0
				}

			}
, 			{
				"box" : 				{
					"id" : "obj-107",
					"maxclass" : "panel",
					"numinlets" : 1,
					"numoutlets" : 0,
					"patching_rect" : [ 942.0, 523.0, 128.0, 128.0 ],
					"presentation" : 1,
					"presentation_rect" : [ 1211.0, 284.0, 194.0, 86.0 ],
					"rounded" : 0
				}

			}
, 			{
				"box" : 				{
					"id" : "obj-108",
					"linecount" : 8,
					"maxclass" : "comment",
					"numinlets" : 1,
					"numoutlets" : 0,
					"patching_rect" : [ 692.0, 553.0, 193.0, 146.0 ],
					"presentation" : 1,
					"presentation_linecount" : 7,
					"presentation_rect" : [ 1038.0, 283.0, 367.0, 129.0 ],
					"text" : "Similar to the RGB \nTracking, these\nparameters dictate \nwhich elements of \nthe HSL colorspace \nare considered when deciding whether to filter out a pixel.",
					"textcolor" : [ 1.0, 1.0, 1.0, 1.0 ]
				}

			}
, 			{
				"box" : 				{
					"angle" : 270.0,
					"bgcolor" : [ 0.125771552324295, 0.566736698150635, 0.55782812833786, 1.0 ],
					"id" : "obj-109",
					"maxclass" : "panel",
					"mode" : 0,
					"numinlets" : 1,
					"numoutlets" : 0,
					"patching_rect" : [ 692.0, 553.0, 128.0, 128.0 ],
					"presentation" : 1,
					"presentation_rect" : [ 1038.0, 283.0, 367.0, 129.0 ],
					"proportion" : 0.5,
					"rounded" : 0
				}

			}
, 			{
				"box" : 				{
					"fontsize" : 18.0,
					"id" : "obj-110",
					"maxclass" : "comment",
					"numinlets" : 1,
					"numoutlets" : 0,
					"patching_rect" : [ 692.0, 522.0, 160.0, 29.0 ],
					"presentation" : 1,
					"presentation_rect" : [ 1038.0, 252.0, 351.0, 29.0 ],
					"text" : "HSL Tracking",
					"textcolor" : [ 1.0, 1.0, 1.0, 1.0 ]
				}

			}
, 			{
				"box" : 				{
					"id" : "obj-111",
					"maxclass" : "panel",
					"numinlets" : 1,
					"numoutlets" : 0,
					"patching_rect" : [ 692.0, 522.0, 128.0, 128.0 ],
					"presentation" : 1,
					"presentation_rect" : [ 1038.0, 252.0, 367.0, 29.0 ],
					"rounded" : 0
				}

			}
, 			{
				"box" : 				{
					"attr" : "redTrack",
					"displaymode" : 8,
					"id" : "obj-23",
					"lock" : 1,
					"maxclass" : "attrui",
					"numinlets" : 1,
					"numoutlets" : 1,
					"outlettype" : [ "" ],
					"patching_rect" : [ 673.0, 931.0, 182.0, 26.0 ],
					"presentation" : 1,
					"presentation_rect" : [ 1217.0, 41.0, 182.0, 26.0 ],
					"text_width" : 110.0
				}

			}
, 			{
				"box" : 				{
					"attr" : "greenTrack",
					"displaymode" : 8,
					"id" : "obj-25",
					"lock" : 1,
					"maxclass" : "attrui",
					"numinlets" : 1,
					"numoutlets" : 1,
					"outlettype" : [ "" ],
					"patching_rect" : [ 673.0, 967.0, 182.0, 26.0 ],
					"presentation" : 1,
					"presentation_rect" : [ 1217.0, 67.0, 182.0, 26.0 ],
					"text_width" : 110.0
				}

			}
, 			{
				"box" : 				{
					"attr" : "blueTrack",
					"displaymode" : 8,
					"id" : "obj-26",
					"lock" : 1,
					"maxclass" : "attrui",
					"numinlets" : 1,
					"numoutlets" : 1,
					"outlettype" : [ "" ],
					"patching_rect" : [ 673.0, 1000.0, 182.0, 26.0 ],
					"presentation" : 1,
					"presentation_rect" : [ 1217.0, 93.0, 182.0, 26.0 ],
					"text_width" : 110.0
				}

			}
, 			{
				"box" : 				{
					"id" : "obj-102",
					"maxclass" : "panel",
					"numinlets" : 1,
					"numoutlets" : 0,
					"patching_rect" : [ 927.0, 508.0, 128.0, 128.0 ],
					"presentation" : 1,
					"presentation_rect" : [ 1211.0, 37.0, 194.0, 86.0 ],
					"rounded" : 0
				}

			}
, 			{
				"box" : 				{
					"id" : "obj-103",
					"linecount" : 19,
					"maxclass" : "comment",
					"numinlets" : 1,
					"numoutlets" : 0,
					"patching_rect" : [ 677.0, 538.0, 193.0, 339.0 ],
					"presentation" : 1,
					"presentation_linecount" : 12,
					"presentation_rect" : [ 1038.0, 34.0, 370.0, 216.0 ],
					"text" : "These are the modes\nused to compare the \npixel colors against\nthe reference color. \nAny channel that is \nenabled, or tracked, will be checked if it meets the threshold. Any untracked channels will be excluded from the comparison. An example would be if only the red channel is set to track, only the red value of the pixels will be considered when deciding which pixels to filter.",
					"textcolor" : [ 1.0, 1.0, 1.0, 1.0 ]
				}

			}
, 			{
				"box" : 				{
					"angle" : 270.0,
					"bgcolor" : [ 0.125771552324295, 0.566736698150635, 0.55782812833786, 1.0 ],
					"id" : "obj-104",
					"maxclass" : "panel",
					"mode" : 0,
					"numinlets" : 1,
					"numoutlets" : 0,
					"patching_rect" : [ 677.0, 538.0, 128.0, 128.0 ],
					"presentation" : 1,
					"presentation_rect" : [ 1038.0, 36.0, 367.0, 214.0 ],
					"proportion" : 0.5,
					"rounded" : 0
				}

			}
, 			{
				"box" : 				{
					"fontsize" : 18.0,
					"id" : "obj-105",
					"maxclass" : "comment",
					"numinlets" : 1,
					"numoutlets" : 0,
					"patching_rect" : [ 677.0, 507.0, 160.0, 29.0 ],
					"presentation" : 1,
					"presentation_rect" : [ 1038.0, 5.0, 351.0, 29.0 ],
					"text" : "RGB Tracking",
					"textcolor" : [ 1.0, 1.0, 1.0, 1.0 ]
				}

			}
, 			{
				"box" : 				{
					"id" : "obj-106",
					"maxclass" : "panel",
					"numinlets" : 1,
					"numoutlets" : 0,
					"patching_rect" : [ 677.0, 507.0, 128.0, 128.0 ],
					"presentation" : 1,
					"presentation_rect" : [ 1038.0, 5.0, 367.0, 29.0 ],
					"rounded" : 0
				}

			}
, 			{
				"box" : 				{
					"attr" : "hueLevel",
					"id" : "obj-27",
					"lock" : 1,
					"maxclass" : "attrui",
					"numinlets" : 1,
					"numoutlets" : 1,
					"outlettype" : [ "" ],
					"patching_rect" : [ 865.0, 832.0, 182.0, 26.0 ],
					"presentation" : 1,
					"presentation_rect" : [ 848.0, 489.0, 182.0, 26.0 ],
					"text_width" : 110.0
				}

			}
, 			{
				"box" : 				{
					"attr" : "satLevel",
					"id" : "obj-28",
					"lock" : 1,
					"maxclass" : "attrui",
					"numinlets" : 1,
					"numoutlets" : 1,
					"outlettype" : [ "" ],
					"patching_rect" : [ 865.0, 860.0, 182.0, 26.0 ],
					"presentation" : 1,
					"presentation_rect" : [ 848.0, 515.0, 182.0, 26.0 ],
					"text_width" : 110.0
				}

			}
, 			{
				"box" : 				{
					"attr" : "lumaLevel",
					"id" : "obj-29",
					"lock" : 1,
					"maxclass" : "attrui",
					"numinlets" : 1,
					"numoutlets" : 1,
					"outlettype" : [ "" ],
					"patching_rect" : [ 865.0, 888.0, 182.0, 26.0 ],
					"presentation" : 1,
					"presentation_rect" : [ 848.0, 541.0, 182.0, 26.0 ],
					"text_width" : 110.0
				}

			}
, 			{
				"box" : 				{
					"id" : "obj-97",
					"maxclass" : "panel",
					"numinlets" : 1,
					"numoutlets" : 0,
					"patching_rect" : [ 912.0, 493.0, 128.0, 128.0 ],
					"presentation" : 1,
					"presentation_rect" : [ 842.0, 484.0, 194.0, 86.0 ],
					"rounded" : 0
				}

			}
, 			{
				"box" : 				{
					"id" : "obj-98",
					"linecount" : 13,
					"maxclass" : "comment",
					"numinlets" : 1,
					"numoutlets" : 0,
					"patching_rect" : [ 662.0, 523.0, 185.0, 234.0 ],
					"presentation" : 1,
					"presentation_linecount" : 8,
					"presentation_rect" : [ 674.0, 515.0, 370.0, 146.0 ],
					"text" : "The HSL levels are\nsimilar to the RGB\nlevels, but instead\nof setting a color to test, you set the attributes. Now you specify the shade, the level of saturation, and how bright each pixel needs to be in order to pass the comparison test.",
					"textcolor" : [ 1.0, 1.0, 1.0, 1.0 ]
				}

			}
, 			{
				"box" : 				{
					"angle" : 270.0,
					"bgcolor" : [ 0.125771552324295, 0.566736698150635, 0.55782812833786, 1.0 ],
					"id" : "obj-99",
					"maxclass" : "panel",
					"mode" : 0,
					"numinlets" : 1,
					"numoutlets" : 0,
					"patching_rect" : [ 662.0, 523.0, 128.0, 128.0 ],
					"presentation" : 1,
					"presentation_rect" : [ 674.0, 515.0, 362.0, 146.0 ],
					"proportion" : 0.5,
					"rounded" : 0
				}

			}
, 			{
				"box" : 				{
					"fontsize" : 18.0,
					"id" : "obj-100",
					"maxclass" : "comment",
					"numinlets" : 1,
					"numoutlets" : 0,
					"patching_rect" : [ 662.0, 492.0, 160.0, 29.0 ],
					"presentation" : 1,
					"presentation_rect" : [ 674.0, 484.0, 273.0, 29.0 ],
					"text" : "HSL Levels",
					"textcolor" : [ 1.0, 1.0, 1.0, 1.0 ]
				}

			}
, 			{
				"box" : 				{
					"id" : "obj-101",
					"maxclass" : "panel",
					"numinlets" : 1,
					"numoutlets" : 0,
					"patching_rect" : [ 662.0, 492.0, 128.0, 128.0 ],
					"presentation" : 1,
					"presentation_rect" : [ 674.0, 484.0, 362.0, 29.0 ],
					"rounded" : 0
				}

			}
, 			{
				"box" : 				{
					"attr" : "redLevel",
					"id" : "obj-20",
					"lock" : 1,
					"maxclass" : "attrui",
					"numinlets" : 1,
					"numoutlets" : 1,
					"outlettype" : [ "" ],
					"patching_rect" : [ 673.0, 832.0, 182.0, 26.0 ],
					"presentation" : 1,
					"presentation_rect" : [ 483.5, 520.0, 182.0, 26.0 ],
					"text_width" : 110.0
				}

			}
, 			{
				"box" : 				{
					"attr" : "greenLevel",
					"id" : "obj-21",
					"lock" : 1,
					"maxclass" : "attrui",
					"numinlets" : 1,
					"numoutlets" : 1,
					"outlettype" : [ "" ],
					"patching_rect" : [ 673.0, 860.0, 182.0, 26.0 ],
					"presentation" : 1,
					"presentation_rect" : [ 483.5, 546.0, 182.0, 26.0 ],
					"text_width" : 110.0
				}

			}
, 			{
				"box" : 				{
					"attr" : "blueLevel",
					"id" : "obj-22",
					"lock" : 1,
					"maxclass" : "attrui",
					"numinlets" : 1,
					"numoutlets" : 1,
					"outlettype" : [ "" ],
					"patching_rect" : [ 673.0, 888.0, 182.0, 26.0 ],
					"presentation" : 1,
					"presentation_rect" : [ 483.5, 572.0, 182.0, 26.0 ],
					"text_width" : 110.0
				}

			}
, 			{
				"box" : 				{
					"id" : "obj-96",
					"maxclass" : "panel",
					"numinlets" : 1,
					"numoutlets" : 0,
					"patching_rect" : [ 280.0, 532.0, 128.0, 128.0 ],
					"presentation" : 1,
					"presentation_rect" : [ 478.0, 516.0, 194.0, 86.0 ],
					"rounded" : 0
				}

			}
, 			{
				"box" : 				{
					"id" : "obj-92",
					"linecount" : 15,
					"maxclass" : "comment",
					"numinlets" : 1,
					"numoutlets" : 0,
					"patching_rect" : [ 213.0, 555.0, 177.0, 269.0 ],
					"presentation" : 1,
					"presentation_linecount" : 6,
					"presentation_rect" : [ 228.0, 547.0, 443.0, 111.0 ],
					"text" : "The RGB Levels are the values\nin the 3 color channels that \nyou want to compare the \nincoming video against. With these parameters, you basically are setting a test color, and all pixels that are close enough to that color pass the test.",
					"textcolor" : [ 1.0, 1.0, 1.0, 1.0 ]
				}

			}
, 			{
				"box" : 				{
					"angle" : 270.0,
					"bgcolor" : [ 0.125771552324295, 0.566736698150635, 0.55782812833786, 1.0 ],
					"id" : "obj-93",
					"maxclass" : "panel",
					"mode" : 0,
					"numinlets" : 1,
					"numoutlets" : 0,
					"patching_rect" : [ 213.0, 555.0, 128.0, 128.0 ],
					"presentation" : 1,
					"presentation_rect" : [ 228.0, 547.0, 443.0, 111.0 ],
					"proportion" : 0.5,
					"rounded" : 0
				}

			}
, 			{
				"box" : 				{
					"fontsize" : 18.0,
					"id" : "obj-94",
					"maxclass" : "comment",
					"numinlets" : 1,
					"numoutlets" : 0,
					"patching_rect" : [ 213.0, 524.0, 160.0, 29.0 ],
					"presentation" : 1,
					"presentation_rect" : [ 228.0, 516.0, 354.0, 29.0 ],
					"text" : "RGB Levels",
					"textcolor" : [ 1.0, 1.0, 1.0, 1.0 ]
				}

			}
, 			{
				"box" : 				{
					"id" : "obj-95",
					"maxclass" : "panel",
					"numinlets" : 1,
					"numoutlets" : 0,
					"patching_rect" : [ 213.0, 524.0, 128.0, 128.0 ],
					"presentation" : 1,
					"presentation_rect" : [ 228.0, 516.0, 443.0, 29.0 ],
					"rounded" : 0
				}

			}
, 			{
				"box" : 				{
					"activebgcolor" : [ 0.0, 0.0, 0.0, 1.0 ],
					"activebgoncolor" : [ 0.125771552324295, 0.566736698150635, 0.55782812833786, 1.0 ],
					"fontface" : 1,
					"fontname" : "Monaco",
					"fontsize" : 14.0,
					"id" : "obj-8",
					"maxclass" : "live.tab",
					"multiline" : 0,
					"num_lines_patching" : 1,
					"num_lines_presentation" : 1,
					"numinlets" : 1,
					"numoutlets" : 3,
					"outlettype" : [ "", "", "float" ],
					"parameter_enable" : 1,
					"patching_rect" : [ 778.0, 724.0, 161.0, 25.0 ],
					"presentation" : 1,
					"presentation_rect" : [ 467.0, 355.0, 197.0, 25.0 ],
					"saved_attribute_attributes" : 					{
						"valueof" : 						{
							"parameter_enum" : [ "RGB", "HSL" ],
							"parameter_longname" : "live.tab[4]",
							"parameter_mmax" : 1,
							"parameter_shortname" : "live.tab",
							"parameter_type" : 2,
							"parameter_unitstyle" : 9
						}

					}
,
					"textcolor" : [ 1.0, 1.0, 1.0, 1.0 ],
					"textoncolor" : [ 1.0, 1.0, 1.0, 1.0 ],
					"varname" : "live.tab"
				}

			}
, 			{
				"box" : 				{
					"id" : "obj-88",
					"linecount" : 19,
					"maxclass" : "comment",
					"numinlets" : 1,
					"numoutlets" : 0,
					"patching_rect" : [ 211.0, 358.0, 168.0, 339.0 ],
					"presentation" : 1,
					"presentation_linecount" : 7,
					"presentation_rect" : [ 228.0, 385.0, 445.0, 129.0 ],
					"text" : "The Filter Mode determines the colorspace to be used for processing which colors to show or remove. RGB mode keeps the video in the normal RGB color space and uses the level and track settings for RGB. HSL mode transforms the video into the HSL colorspace and uses the level and track settings before converting the video back to RGB.",
					"textcolor" : [ 1.0, 1.0, 1.0, 1.0 ]
				}

			}
, 			{
				"box" : 				{
					"angle" : 270.0,
					"bgcolor" : [ 0.125771552324295, 0.566736698150635, 0.55782812833786, 1.0 ],
					"id" : "obj-89",
					"maxclass" : "panel",
					"mode" : 0,
					"numinlets" : 1,
					"numoutlets" : 0,
					"patching_rect" : [ 211.0, 358.0, 128.0, 128.0 ],
					"presentation" : 1,
					"presentation_rect" : [ 228.0, 385.0, 443.0, 129.0 ],
					"proportion" : 0.5,
					"rounded" : 0
				}

			}
, 			{
				"box" : 				{
					"fontsize" : 18.0,
					"id" : "obj-90",
					"maxclass" : "comment",
					"numinlets" : 1,
					"numoutlets" : 0,
					"patching_rect" : [ 211.0, 327.0, 160.0, 29.0 ],
					"presentation" : 1,
					"presentation_rect" : [ 228.0, 354.0, 443.0, 29.0 ],
					"text" : "Filter Mode",
					"textcolor" : [ 1.0, 1.0, 1.0, 1.0 ]
				}

			}
, 			{
				"box" : 				{
					"id" : "obj-91",
					"maxclass" : "panel",
					"numinlets" : 1,
					"numoutlets" : 0,
					"patching_rect" : [ 211.0, 327.0, 128.0, 128.0 ],
					"presentation" : 1,
					"presentation_rect" : [ 228.0, 354.0, 443.0, 29.0 ],
					"rounded" : 0
				}

			}
, 			{
				"box" : 				{
					"id" : "obj-87",
					"maxclass" : "newobj",
					"numinlets" : 1,
					"numoutlets" : 1,
					"outlettype" : [ "" ],
					"patching_rect" : [ 901.0, 275.0, 261.0, 26.0 ],
					"text" : "loadmess read hsv-cylinder.png"
				}

			}
, 			{
				"box" : 				{
					"id" : "obj-86",
					"linecount" : 2,
					"maxclass" : "newobj",
					"numinlets" : 1,
					"numoutlets" : 1,
					"outlettype" : [ "" ],
					"patching_rect" : [ 921.0, 400.0, 210.0, 43.0 ],
					"text" : "loadmess read RGB_color_solid_cube.png"
				}

			}
, 			{
				"box" : 				{
					"id" : "obj-84",
					"linecount" : 6,
					"maxclass" : "message",
					"numinlets" : 2,
					"numoutlets" : 1,
					"outlettype" : [ "" ],
					"patching_rect" : [ 602.0, 256.5, 235.0, 113.0 ],
					"text" : ";\rmax launchbrowser https://commons.wikimedia.org/wiki/File:HSV_color_solid_cylinder_saturation_gray.png"
				}

			}
, 			{
				"box" : 				{
					"fontsize" : 10.0,
					"id" : "obj-85",
					"maxclass" : "textbutton",
					"numinlets" : 1,
					"numoutlets" : 3,
					"outlettype" : [ "", "", "int" ],
					"parameter_enable" : 0,
					"patching_rect" : [ 595.0, 191.0, 100.0, 20.0 ],
					"presentation" : 1,
					"presentation_rect" : [ 513.0, 301.5, 115.0, 20.0 ],
					"text" : "Image Source",
					"textoncolor" : [ 1.0, 1.0, 1.0, 1.0 ]
				}

			}
, 			{
				"box" : 				{
					"id" : "obj-83",
					"linecount" : 5,
					"maxclass" : "message",
					"numinlets" : 2,
					"numoutlets" : 1,
					"outlettype" : [ "" ],
					"patching_rect" : [ 326.0, 256.5, 252.0, 96.0 ],
					"text" : ";\rmax launchbrowser https://commons.wikimedia.org/wiki/File:RGB_color_solid_cube.png"
				}

			}
, 			{
				"box" : 				{
					"fontsize" : 10.0,
					"id" : "obj-81",
					"maxclass" : "textbutton",
					"numinlets" : 1,
					"numoutlets" : 3,
					"outlettype" : [ "", "", "int" ],
					"parameter_enable" : 0,
					"patching_rect" : [ 319.0, 191.0, 100.0, 20.0 ],
					"presentation" : 1,
					"presentation_rect" : [ 353.0, 301.5, 115.0, 20.0 ],
					"text" : "Image Source",
					"textoncolor" : [ 1.0, 1.0, 1.0, 1.0 ]
				}

			}
, 			{
				"box" : 				{
					"id" : "obj-78",
					"maxclass" : "comment",
					"numinlets" : 1,
					"numoutlets" : 0,
					"patching_rect" : [ 1036.0, 201.25, 150.0, 24.0 ],
					"presentation" : 1,
					"presentation_rect" : [ 513.0, 187.25, 115.0, 24.0 ],
					"text" : "HSL Cylinder",
					"textcolor" : [ 1.0, 1.0, 1.0, 1.0 ],
					"textjustification" : 1
				}

			}
, 			{
				"box" : 				{
					"id" : "obj-79",
					"maxclass" : "panel",
					"numinlets" : 1,
					"numoutlets" : 0,
					"patching_rect" : [ 921.0, 149.0, 128.0, 128.0 ],
					"presentation" : 1,
					"presentation_rect" : [ 513.0, 186.25, 115.0, 25.0 ],
					"rounded" : 0
				}

			}
, 			{
				"box" : 				{
					"autofit" : 1,
					"forceaspect" : 1,
					"id" : "obj-80",
					"maxclass" : "fpic",
					"numinlets" : 1,
					"numoutlets" : 1,
					"outlettype" : [ "jit_matrix" ],
					"patching_rect" : [ 945.0, 320.25, 100.0, 75.0 ],
					"pic" : "hsv-cylinder.png",
					"presentation" : 1,
					"presentation_rect" : [ 513.0, 213.25, 115.0, 86.25 ]
				}

			}
, 			{
				"box" : 				{
					"id" : "obj-77",
					"maxclass" : "comment",
					"numinlets" : 1,
					"numoutlets" : 0,
					"patching_rect" : [ 1085.0, 266.0, 150.0, 24.0 ],
					"presentation" : 1,
					"presentation_rect" : [ 353.0, 186.25, 115.0, 24.0 ],
					"text" : "RGB Cube",
					"textcolor" : [ 1.0, 1.0, 1.0, 1.0 ],
					"textjustification" : 1
				}

			}
, 			{
				"box" : 				{
					"id" : "obj-75",
					"maxclass" : "panel",
					"numinlets" : 1,
					"numoutlets" : 0,
					"patching_rect" : [ 1147.0, 173.0, 128.0, 128.0 ],
					"presentation" : 1,
					"presentation_rect" : [ 353.0, 186.25, 115.0, 25.0 ],
					"rounded" : 0
				}

			}
, 			{
				"box" : 				{
					"autofit" : 1,
					"forceaspect" : 1,
					"id" : "obj-74",
					"maxclass" : "fpic",
					"numinlets" : 1,
					"numoutlets" : 1,
					"outlettype" : [ "jit_matrix" ],
					"patching_rect" : [ 945.0, 436.0, 100.0, 75.0 ],
					"pic" : "RGB_color_solid_cube.png",
					"presentation" : 1,
					"presentation_rect" : [ 353.0, 213.25, 115.0, 86.25 ]
				}

			}
, 			{
				"box" : 				{
					"id" : "obj-70",
					"linecount" : 60,
					"maxclass" : "comment",
					"numinlets" : 1,
					"numoutlets" : 0,
					"patching_rect" : [ 1063.0, 64.0, 160.0, 1056.0 ],
					"presentation" : 1,
					"presentation_linecount" : 25,
					"presentation_rect" : [ 674.0, 36.0, 370.0, 444.0 ],
					"text" : "RGB and HSL are two different methods of representing colors on a computer. \n\nRGB (Red-Green-Blue) specifies color by giving the amount of each primary light color to mix. This method mixes light wavelengths in a similar way to mixing paint pigments. RGB is considered the easiest digital color scheme to pick-up and is often visualized as a cube.\n\nHSL (Hue-Saturation-Luminance) specifies color by the shade (hue), how vibrant the shade is (saturation), and how bright the color is (luminance). HSL is commonly used in digital art applications, for example Adobe's Photoshop. It is prefferred due to the speed at which you can select a shade and then use saturation and luminance to quickly modify it to your liking. To accomplish an equivalent modification in the RGB spectrum, you would need to rebalance all 3 of RGB to achieve the desired effect. HSL is commonly visualized as a cylinder.",
					"textcolor" : [ 1.0, 1.0, 1.0, 1.0 ]
				}

			}
, 			{
				"box" : 				{
					"angle" : 270.0,
					"bgcolor" : [ 0.125771552324295, 0.566736698150635, 0.55782812833786, 1.0 ],
					"id" : "obj-71",
					"maxclass" : "panel",
					"mode" : 0,
					"numinlets" : 1,
					"numoutlets" : 0,
					"patching_rect" : [ 1086.0, 165.75, 128.0, 128.0 ],
					"presentation" : 1,
					"presentation_rect" : [ 674.0, 36.0, 362.0, 444.0 ],
					"proportion" : 0.5,
					"rounded" : 0
				}

			}
, 			{
				"box" : 				{
					"fontsize" : 18.0,
					"id" : "obj-72",
					"maxclass" : "comment",
					"numinlets" : 1,
					"numoutlets" : 0,
					"patching_rect" : [ 1086.0, 215.25, 160.0, 29.0 ],
					"presentation" : 1,
					"presentation_rect" : [ 674.0, 5.0, 362.0, 29.0 ],
					"text" : "RGB vs. HSL",
					"textcolor" : [ 1.0, 1.0, 1.0, 1.0 ],
					"textjustification" : 1
				}

			}
, 			{
				"box" : 				{
					"id" : "obj-73",
					"maxclass" : "panel",
					"numinlets" : 1,
					"numoutlets" : 0,
					"patching_rect" : [ 1051.0, 149.0, 128.0, 128.0 ],
					"presentation" : 1,
					"presentation_rect" : [ 674.0, 5.0, 362.0, 29.0 ],
					"rounded" : 0
				}

			}
, 			{
				"box" : 				{
					"id" : "obj-67",
					"maxclass" : "newobj",
					"numinlets" : 1,
					"numoutlets" : 1,
					"outlettype" : [ "" ],
					"patching_rect" : [ 266.5, 874.0, 135.0, 26.0 ],
					"text" : "prepend hinvert"
				}

			}
, 			{
				"box" : 				{
					"id" : "obj-68",
					"maxclass" : "newobj",
					"numinlets" : 1,
					"numoutlets" : 1,
					"outlettype" : [ "" ],
					"patching_rect" : [ 266.5, 814.0, 126.0, 26.0 ],
					"text" : "prepend invert"
				}

			}
, 			{
				"box" : 				{
					"id" : "obj-69",
					"maxclass" : "newobj",
					"numinlets" : 1,
					"numoutlets" : 3,
					"outlettype" : [ "", "", "" ],
					"patching_rect" : [ 266.5, 782.0, 126.0, 26.0 ],
					"text" : "getattr invert"
				}

			}
, 			{
				"box" : 				{
					"id" : "obj-63",
					"linecount" : 19,
					"maxclass" : "comment",
					"numinlets" : 1,
					"numoutlets" : 0,
					"patching_rect" : [ 1051.0, 158.0, 151.0, 339.0 ],
					"presentation" : 1,
					"presentation_linecount" : 7,
					"presentation_rect" : [ 309.0, 43.0, 362.0, 129.0 ],
					"text" : "The technique of Color Filtering is a series of methods to either isolate or remove a color or range of colors. For this course, we have selected two primary ways of accomplishing this task, by RGB & HSL. These filtering modes give you two different approaches to specifying colors.",
					"textcolor" : [ 1.0, 1.0, 1.0, 1.0 ]
				}

			}
, 			{
				"box" : 				{
					"angle" : 270.0,
					"bgcolor" : [ 0.125771552324295, 0.566736698150635, 0.55782812833786, 1.0 ],
					"id" : "obj-61",
					"maxclass" : "panel",
					"mode" : 0,
					"numinlets" : 1,
					"numoutlets" : 0,
					"patching_rect" : [ 1070.0, 173.0, 128.0, 128.0 ],
					"presentation" : 1,
					"presentation_rect" : [ 309.0, 43.0, 362.0, 129.0 ],
					"proportion" : 0.5,
					"rounded" : 0
				}

			}
, 			{
				"box" : 				{
					"fontsize" : 24.0,
					"id" : "obj-60",
					"linecount" : 2,
					"maxclass" : "comment",
					"numinlets" : 1,
					"numoutlets" : 0,
					"patching_rect" : [ 710.0, 6.0, 210.0, 66.0 ],
					"presentation" : 1,
					"presentation_rect" : [ 309.0, 5.0, 362.0, 36.0 ],
					"text" : "What is Color Filtering?",
					"textcolor" : [ 1.0, 1.0, 1.0, 1.0 ]
				}

			}
, 			{
				"box" : 				{
					"id" : "obj-58",
					"maxclass" : "panel",
					"numinlets" : 1,
					"numoutlets" : 0,
					"patching_rect" : [ 1017.0, 174.0, 128.0, 128.0 ],
					"presentation" : 1,
					"presentation_rect" : [ 309.0, 5.0, 362.0, 36.0 ],
					"rounded" : 0
				}

			}
, 			{
				"box" : 				{
					"id" : "obj-57",
					"maxclass" : "newobj",
					"numinlets" : 1,
					"numoutlets" : 1,
					"outlettype" : [ "" ],
					"patching_rect" : [ 778.0, 754.0, 168.0, 26.0 ],
					"text" : "prepend filter-mode"
				}

			}
, 			{
				"box" : 				{
					"id" : "obj-56",
					"linecount" : 2,
					"maxclass" : "newobj",
					"numinlets" : 1,
					"numoutlets" : 1,
					"outlettype" : [ "" ],
					"patching_rect" : [ 880.5, 636.0, 84.0, 43.0 ],
					"text" : "prepend hslThresh"
				}

			}
, 			{
				"box" : 				{
					"id" : "obj-54",
					"maxclass" : "newobj",
					"numinlets" : 1,
					"numoutlets" : 1,
					"outlettype" : [ "" ],
					"patching_rect" : [ 880.5, 576.0, 151.0, 26.0 ],
					"text" : "prepend threshold"
				}

			}
, 			{
				"box" : 				{
					"id" : "obj-55",
					"maxclass" : "newobj",
					"numinlets" : 1,
					"numoutlets" : 3,
					"outlettype" : [ "", "", "" ],
					"patching_rect" : [ 880.5, 544.0, 151.0, 26.0 ],
					"text" : "getattr threshold"
				}

			}
, 			{
				"box" : 				{
					"id" : "obj-42",
					"maxclass" : "newobj",
					"numinlets" : 1,
					"numoutlets" : 1,
					"outlettype" : [ "" ],
					"patching_rect" : [ 708.0, 668.0, 151.0, 26.0 ],
					"text" : "prepend lumaTrack"
				}

			}
, 			{
				"box" : 				{
					"id" : "obj-43",
					"maxclass" : "newobj",
					"numinlets" : 1,
					"numoutlets" : 3,
					"outlettype" : [ "", "", "" ],
					"patching_rect" : [ 708.0, 636.0, 151.0, 26.0 ],
					"text" : "getattr lumaTrack"
				}

			}
, 			{
				"box" : 				{
					"id" : "obj-44",
					"maxclass" : "newobj",
					"numinlets" : 1,
					"numoutlets" : 1,
					"outlettype" : [ "" ],
					"patching_rect" : [ 540.0, 668.0, 143.0, 26.0 ],
					"text" : "prepend satTrack"
				}

			}
, 			{
				"box" : 				{
					"id" : "obj-45",
					"maxclass" : "newobj",
					"numinlets" : 1,
					"numoutlets" : 3,
					"outlettype" : [ "", "", "" ],
					"patching_rect" : [ 540.0, 636.0, 143.0, 26.0 ],
					"text" : "getattr satTrack"
				}

			}
, 			{
				"box" : 				{
					"id" : "obj-46",
					"maxclass" : "newobj",
					"numinlets" : 1,
					"numoutlets" : 1,
					"outlettype" : [ "" ],
					"patching_rect" : [ 385.0, 668.0, 143.0, 26.0 ],
					"text" : "prepend hueTrack"
				}

			}
, 			{
				"box" : 				{
					"id" : "obj-47",
					"maxclass" : "newobj",
					"numinlets" : 1,
					"numoutlets" : 3,
					"outlettype" : [ "", "", "" ],
					"patching_rect" : [ 385.0, 636.0, 143.0, 26.0 ],
					"text" : "getattr hueTrack"
				}

			}
, 			{
				"box" : 				{
					"id" : "obj-48",
					"maxclass" : "newobj",
					"numinlets" : 1,
					"numoutlets" : 1,
					"outlettype" : [ "" ],
					"patching_rect" : [ 716.0, 562.0, 151.0, 26.0 ],
					"text" : "prepend blueTrack"
				}

			}
, 			{
				"box" : 				{
					"id" : "obj-49",
					"maxclass" : "newobj",
					"numinlets" : 1,
					"numoutlets" : 3,
					"outlettype" : [ "", "", "" ],
					"patching_rect" : [ 716.0, 530.0, 151.0, 26.0 ],
					"text" : "getattr blueTrack"
				}

			}
, 			{
				"box" : 				{
					"id" : "obj-50",
					"maxclass" : "newobj",
					"numinlets" : 1,
					"numoutlets" : 1,
					"outlettype" : [ "" ],
					"patching_rect" : [ 540.0, 562.0, 160.0, 26.0 ],
					"text" : "prepend greenTrack"
				}

			}
, 			{
				"box" : 				{
					"id" : "obj-51",
					"maxclass" : "newobj",
					"numinlets" : 1,
					"numoutlets" : 3,
					"outlettype" : [ "", "", "" ],
					"patching_rect" : [ 540.0, 530.0, 160.0, 26.0 ],
					"text" : "getattr greenTrack"
				}

			}
, 			{
				"box" : 				{
					"id" : "obj-52",
					"maxclass" : "newobj",
					"numinlets" : 1,
					"numoutlets" : 1,
					"outlettype" : [ "" ],
					"patching_rect" : [ 385.0, 562.0, 143.0, 26.0 ],
					"text" : "prepend redTrack"
				}

			}
, 			{
				"box" : 				{
					"id" : "obj-53",
					"maxclass" : "newobj",
					"numinlets" : 1,
					"numoutlets" : 3,
					"outlettype" : [ "", "", "" ],
					"patching_rect" : [ 385.0, 530.0, 143.0, 26.0 ],
					"text" : "getattr redTrack"
				}

			}
, 			{
				"box" : 				{
					"id" : "obj-34",
					"maxclass" : "newobj",
					"numinlets" : 1,
					"numoutlets" : 1,
					"outlettype" : [ "" ],
					"patching_rect" : [ 716.0, 468.0, 151.0, 26.0 ],
					"text" : "prepend lumaLevel"
				}

			}
, 			{
				"box" : 				{
					"id" : "obj-35",
					"maxclass" : "newobj",
					"numinlets" : 1,
					"numoutlets" : 3,
					"outlettype" : [ "", "", "" ],
					"patching_rect" : [ 716.0, 436.0, 151.0, 26.0 ],
					"text" : "getattr lumaLevel"
				}

			}
, 			{
				"box" : 				{
					"id" : "obj-36",
					"maxclass" : "newobj",
					"numinlets" : 1,
					"numoutlets" : 1,
					"outlettype" : [ "" ],
					"patching_rect" : [ 540.0, 468.0, 143.0, 26.0 ],
					"text" : "prepend satLevel"
				}

			}
, 			{
				"box" : 				{
					"id" : "obj-37",
					"maxclass" : "newobj",
					"numinlets" : 1,
					"numoutlets" : 3,
					"outlettype" : [ "", "", "" ],
					"patching_rect" : [ 540.0, 436.0, 143.0, 26.0 ],
					"text" : "getattr satLevel"
				}

			}
, 			{
				"box" : 				{
					"id" : "obj-38",
					"maxclass" : "newobj",
					"numinlets" : 1,
					"numoutlets" : 1,
					"outlettype" : [ "" ],
					"patching_rect" : [ 385.0, 477.0, 143.0, 26.0 ],
					"text" : "prepend hueLevel"
				}

			}
, 			{
				"box" : 				{
					"id" : "obj-39",
					"maxclass" : "newobj",
					"numinlets" : 1,
					"numoutlets" : 3,
					"outlettype" : [ "", "", "" ],
					"patching_rect" : [ 385.0, 436.0, 143.0, 26.0 ],
					"text" : "getattr hueLevel"
				}

			}
, 			{
				"box" : 				{
					"id" : "obj-24",
					"maxclass" : "newobj",
					"numinlets" : 1,
					"numoutlets" : 2,
					"outlettype" : [ "jit_matrix", "" ],
					"patching_rect" : [ 475.0, 830.0, 168.0, 26.0 ],
					"text" : "jit.matrix 1 char 1"
				}

			}
, 			{
				"box" : 				{
					"id" : "obj-19",
					"maxclass" : "toggle",
					"numinlets" : 1,
					"numoutlets" : 1,
					"outlettype" : [ "int" ],
					"parameter_enable" : 0,
					"patching_rect" : [ 343.0, 38.0, 24.0, 24.0 ]
				}

			}
, 			{
				"box" : 				{
					"id" : "obj-16",
					"maxclass" : "newobj",
					"numinlets" : 1,
					"numoutlets" : 1,
					"outlettype" : [ "" ],
					"patching_rect" : [ 716.0, 362.0, 151.0, 26.0 ],
					"text" : "prepend blueLevel"
				}

			}
, 			{
				"box" : 				{
					"id" : "obj-17",
					"maxclass" : "newobj",
					"numinlets" : 1,
					"numoutlets" : 3,
					"outlettype" : [ "", "", "" ],
					"patching_rect" : [ 716.0, 330.0, 151.0, 26.0 ],
					"text" : "getattr blueLevel"
				}

			}
, 			{
				"box" : 				{
					"id" : "obj-14",
					"maxclass" : "newobj",
					"numinlets" : 1,
					"numoutlets" : 1,
					"outlettype" : [ "" ],
					"patching_rect" : [ 540.0, 362.0, 160.0, 26.0 ],
					"text" : "prepend greenLevel"
				}

			}
, 			{
				"box" : 				{
					"id" : "obj-15",
					"maxclass" : "newobj",
					"numinlets" : 1,
					"numoutlets" : 3,
					"outlettype" : [ "", "", "" ],
					"patching_rect" : [ 540.0, 330.0, 160.0, 26.0 ],
					"text" : "getattr greenLevel"
				}

			}
, 			{
				"box" : 				{
					"id" : "obj-13",
					"maxclass" : "newobj",
					"numinlets" : 1,
					"numoutlets" : 1,
					"outlettype" : [ "" ],
					"patching_rect" : [ 385.0, 362.0, 143.0, 26.0 ],
					"text" : "prepend redLevel"
				}

			}
, 			{
				"box" : 				{
					"id" : "obj-12",
					"maxclass" : "newobj",
					"numinlets" : 1,
					"numoutlets" : 3,
					"outlettype" : [ "", "", "" ],
					"patching_rect" : [ 385.0, 330.0, 143.0, 26.0 ],
					"text" : "getattr redLevel"
				}

			}
, 			{
				"box" : 				{
					"id" : "obj-11",
					"maxclass" : "newobj",
					"numinlets" : 1,
					"numoutlets" : 2,
					"outlettype" : [ "jit_matrix", "" ],
					"patcher" : 					{
						"fileversion" : 1,
						"appversion" : 						{
							"major" : 8,
							"minor" : 1,
							"revision" : 6,
							"architecture" : "x64",
							"modernui" : 1
						}
,
						"classnamespace" : "jit.gen",
						"rect" : [ 59.0, 104.0, 600.0, 450.0 ],
						"bglocked" : 0,
						"openinpresentation" : 0,
						"default_fontsize" : 12.0,
						"default_fontface" : 0,
						"default_fontname" : "Arial",
						"gridonopen" : 1,
						"gridsize" : [ 15.0, 15.0 ],
						"gridsnaponopen" : 1,
						"objectsnaponopen" : 1,
						"statusbarvisible" : 2,
						"toolbarvisible" : 1,
						"lefttoolbarpinned" : 0,
						"toptoolbarpinned" : 0,
						"righttoolbarpinned" : 0,
						"bottomtoolbarpinned" : 0,
						"toolbars_unpinned_last_save" : 0,
						"tallnewobj" : 0,
						"boxanimatetime" : 200,
						"enablehscroll" : 1,
						"enablevscroll" : 1,
						"devicewidth" : 0.0,
						"description" : "",
						"digest" : "",
						"tags" : "",
						"style" : "",
						"subpatcher_template" : "",
						"assistshowspatchername" : 0,
						"boxes" : [ 							{
								"box" : 								{
									"id" : "obj-18",
									"maxclass" : "newobj",
									"numinlets" : 0,
									"numoutlets" : 1,
									"outlettype" : [ "" ],
									"patching_rect" : [ 255.0, 354.0, 178.0, 22.0 ],
									"text" : "param invert 0 @min 0 @max 1"
								}

							}
, 							{
								"box" : 								{
									"id" : "obj-17",
									"maxclass" : "newobj",
									"numinlets" : 0,
									"numoutlets" : 1,
									"outlettype" : [ "" ],
									"patching_rect" : [ 289.0, 301.0, 204.0, 22.0 ],
									"text" : "param lumaTrack 1 @max 1 @min 0"
								}

							}
, 							{
								"box" : 								{
									"id" : "obj-16",
									"maxclass" : "newobj",
									"numinlets" : 0,
									"numoutlets" : 1,
									"outlettype" : [ "" ],
									"patching_rect" : [ 287.0, 269.0, 194.0, 22.0 ],
									"text" : "param satTrack 1 @max 1 @min 0"
								}

							}
, 							{
								"box" : 								{
									"id" : "obj-15",
									"maxclass" : "newobj",
									"numinlets" : 0,
									"numoutlets" : 1,
									"outlettype" : [ "" ],
									"patching_rect" : [ 287.0, 237.0, 198.0, 22.0 ],
									"text" : "param hueTrack 1 @max 1 @min 0"
								}

							}
, 							{
								"box" : 								{
									"id" : "obj-14",
									"maxclass" : "newobj",
									"numinlets" : 0,
									"numoutlets" : 1,
									"outlettype" : [ "" ],
									"patching_rect" : [ 287.0, 203.0, 204.0, 22.0 ],
									"text" : "param lumaLevel 0 @max 1 @min 0"
								}

							}
, 							{
								"box" : 								{
									"id" : "obj-13",
									"maxclass" : "newobj",
									"numinlets" : 0,
									"numoutlets" : 1,
									"outlettype" : [ "" ],
									"patching_rect" : [ 287.0, 174.0, 194.0, 22.0 ],
									"text" : "param satLevel 0 @max 1 @min 0"
								}

							}
, 							{
								"box" : 								{
									"id" : "obj-12",
									"maxclass" : "newobj",
									"numinlets" : 0,
									"numoutlets" : 1,
									"outlettype" : [ "" ],
									"patching_rect" : [ 287.0, 143.0, 198.0, 22.0 ],
									"text" : "param hueLevel 0 @max 1 @min 0"
								}

							}
, 							{
								"box" : 								{
									"id" : "obj-11",
									"maxclass" : "newobj",
									"numinlets" : 0,
									"numoutlets" : 1,
									"outlettype" : [ "" ],
									"patching_rect" : [ 31.0, 342.0, 208.0, 22.0 ],
									"text" : "param threshold 0.1 @max 1 @min 0"
								}

							}
, 							{
								"box" : 								{
									"id" : "obj-10",
									"maxclass" : "newobj",
									"numinlets" : 0,
									"numoutlets" : 1,
									"outlettype" : [ "" ],
									"patching_rect" : [ 37.0, 301.0, 201.0, 22.0 ],
									"text" : "param blueTrack 1 @max 1 @min 0"
								}

							}
, 							{
								"box" : 								{
									"id" : "obj-9",
									"maxclass" : "newobj",
									"numinlets" : 0,
									"numoutlets" : 1,
									"outlettype" : [ "" ],
									"patching_rect" : [ 37.0, 277.0, 209.0, 22.0 ],
									"text" : "param greenTrack 1 @max 1 @min 0"
								}

							}
, 							{
								"box" : 								{
									"id" : "obj-8",
									"maxclass" : "newobj",
									"numinlets" : 0,
									"numoutlets" : 1,
									"outlettype" : [ "" ],
									"patching_rect" : [ 37.0, 247.0, 196.0, 22.0 ],
									"text" : "param redTrack 1 @max 1 @min 0"
								}

							}
, 							{
								"box" : 								{
									"id" : "obj-7",
									"maxclass" : "newobj",
									"numinlets" : 0,
									"numoutlets" : 1,
									"outlettype" : [ "" ],
									"patching_rect" : [ 37.0, 216.0, 200.0, 22.0 ],
									"text" : "param blueLevel 0 @max 1 @min 0"
								}

							}
, 							{
								"box" : 								{
									"id" : "obj-6",
									"maxclass" : "newobj",
									"numinlets" : 0,
									"numoutlets" : 1,
									"outlettype" : [ "" ],
									"patching_rect" : [ 45.0, 183.0, 212.0, 22.0 ],
									"text" : "param greenLevel 0. @max 1 @min 0"
								}

							}
, 							{
								"box" : 								{
									"id" : "obj-5",
									"maxclass" : "newobj",
									"numinlets" : 0,
									"numoutlets" : 1,
									"outlettype" : [ "" ],
									"patching_rect" : [ 37.0, 151.0, 205.0, 22.0 ],
									"text" : "param redLevel 0. @max 1. @min 0."
								}

							}
, 							{
								"box" : 								{
									"id" : "obj-1",
									"maxclass" : "newobj",
									"numinlets" : 0,
									"numoutlets" : 1,
									"outlettype" : [ "" ],
									"patching_rect" : [ 50.0, 14.0, 28.0, 22.0 ],
									"text" : "in 1"
								}

							}
, 							{
								"box" : 								{
									"id" : "obj-4",
									"maxclass" : "newobj",
									"numinlets" : 1,
									"numoutlets" : 0,
									"patching_rect" : [ 50.0, 48.0, 35.0, 22.0 ],
									"text" : "out 1"
								}

							}
 ],
						"lines" : [ 							{
								"patchline" : 								{
									"destination" : [ "obj-4", 0 ],
									"source" : [ "obj-1", 0 ]
								}

							}
 ]
					}
,
					"patching_rect" : [ 472.0, 875.0, 67.0, 26.0 ],
					"text" : "jit.gen"
				}

			}
, 			{
				"box" : 				{
					"id" : "obj-10",
					"maxclass" : "newobj",
					"numinlets" : 1,
					"numoutlets" : 2,
					"outlettype" : [ "jit_matrix", "" ],
					"patching_rect" : [ 25.0, 724.0, 311.0, 26.0 ],
					"text" : "jit.gl.videoplane @transform_reset 2"
				}

			}
, 			{
				"box" : 				{
					"bgmode" : 0,
					"border" : 0,
					"clickthrough" : 0,
					"enablehscroll" : 0,
					"enablevscroll" : 0,
					"id" : "obj-9",
					"lockeddragscroll" : 0,
					"maxclass" : "bpatcher",
					"name" : "cfilter.maxpat",
					"numinlets" : 2,
					"numoutlets" : 1,
					"offset" : [ 0.0, 0.0 ],
					"outlettype" : [ "jit_gl_texture" ],
					"patching_rect" : [ 25.0, 450.0, 201.0, 270.0 ],
					"presentation" : 1,
					"presentation_rect" : [ 26.0, 350.5, 201.0, 296.0 ],
					"varname" : "cfilter",
					"viewvisibility" : 1
				}

			}
, 			{
				"box" : 				{
					"id" : "obj-7",
					"maxclass" : "newobj",
					"numinlets" : 1,
					"numoutlets" : 2,
					"outlettype" : [ "jit_gl_texture", "" ],
					"patching_rect" : [ 25.0, 420.0, 261.0, 26.0 ],
					"text" : "jit.gl.texture @name vid-input"
				}

			}
, 			{
				"box" : 				{
					"id" : "obj-6",
					"linecount" : 2,
					"maxclass" : "newobj",
					"numinlets" : 1,
					"numoutlets" : 1,
					"outlettype" : [ "" ],
					"patching_rect" : [ 757.0, 88.0, 277.0, 43.0 ],
					"text" : "loadmess title \"Color Filtering Explained\""
				}

			}
, 			{
				"box" : 				{
					"id" : "obj-5",
					"maxclass" : "newobj",
					"numinlets" : 1,
					"numoutlets" : 2,
					"outlettype" : [ "", "" ],
					"patching_rect" : [ 812.0, 186.0, 101.0, 26.0 ],
					"save" : [ "#N", "thispatcher", ";", "#Q", "end", ";" ],
					"text" : "thispatcher"
				}

			}
, 			{
				"box" : 				{
					"id" : "obj-4",
					"linecount" : 2,
					"maxclass" : "newobj",
					"numinlets" : 1,
					"numoutlets" : 1,
					"outlettype" : [ "" ],
					"patching_rect" : [ 378.0, 64.0, 286.0, 43.0 ],
					"text" : "loadmess sendwindow title \"Color Filter\""
				}

			}
, 			{
				"box" : 				{
					"id" : "obj-3",
					"maxclass" : "newobj",
					"numinlets" : 1,
					"numoutlets" : 3,
					"outlettype" : [ "jit_matrix", "bang", "" ],
					"patching_rect" : [ 326.0, 130.0, 504.0, 26.0 ],
					"text" : "jit.world cfilter @sync 0 @fps 30 @size 360 240 @floating 1"
				}

			}
, 			{
				"box" : 				{
					"id" : "obj-2",
					"maxclass" : "newobj",
					"numinlets" : 1,
					"numoutlets" : 1,
					"outlettype" : [ "" ],
					"patching_rect" : [ 25.0, 15.0, 277.0, 26.0 ],
					"text" : "loadmess movie read pyramids.mp4"
				}

			}
, 			{
				"box" : 				{
					"args" : [ "@video-mode", 0, "@output-mode", 0 ],
					"bgmode" : 0,
					"border" : 0,
					"clickthrough" : 0,
					"enablehscroll" : 0,
					"enablevscroll" : 0,
					"id" : "obj-1",
					"lockeddragscroll" : 0,
					"maxclass" : "bpatcher",
					"name" : "Video-Source.maxpat",
					"numinlets" : 1,
					"numoutlets" : 1,
					"offset" : [ 0.0, 0.0 ],
					"outlettype" : [ "jit_gl_texture" ],
					"patching_rect" : [ 25.0, 118.0, 278.0, 286.0 ],
					"presentation" : 1,
					"presentation_rect" : [ 26.0, 64.0, 278.0, 286.0 ],
					"varname" : "Video-Source",
					"viewvisibility" : 1
				}

			}
 ],
		"lines" : [ 			{
				"patchline" : 				{
					"destination" : [ "obj-7", 0 ],
					"source" : [ "obj-1", 0 ]
				}

			}
, 			{
				"patchline" : 				{
					"destination" : [ "obj-11", 0 ],
					"source" : [ "obj-12", 1 ]
				}

			}
, 			{
				"patchline" : 				{
					"destination" : [ "obj-13", 0 ],
					"source" : [ "obj-12", 0 ]
				}

			}
, 			{
				"patchline" : 				{
					"destination" : [ "obj-19", 0 ],
					"source" : [ "obj-123", 0 ]
				}

			}
, 			{
				"patchline" : 				{
					"destination" : [ "obj-9", 1 ],
					"source" : [ "obj-13", 0 ]
				}

			}
, 			{
				"patchline" : 				{
					"destination" : [ "obj-9", 1 ],
					"source" : [ "obj-14", 0 ]
				}

			}
, 			{
				"patchline" : 				{
					"destination" : [ "obj-11", 0 ],
					"source" : [ "obj-15", 1 ]
				}

			}
, 			{
				"patchline" : 				{
					"destination" : [ "obj-14", 0 ],
					"source" : [ "obj-15", 0 ]
				}

			}
, 			{
				"patchline" : 				{
					"destination" : [ "obj-9", 1 ],
					"source" : [ "obj-16", 0 ]
				}

			}
, 			{
				"patchline" : 				{
					"destination" : [ "obj-11", 0 ],
					"source" : [ "obj-17", 1 ]
				}

			}
, 			{
				"patchline" : 				{
					"destination" : [ "obj-16", 0 ],
					"source" : [ "obj-17", 0 ]
				}

			}
, 			{
				"patchline" : 				{
					"destination" : [ "obj-3", 0 ],
					"source" : [ "obj-19", 0 ]
				}

			}
, 			{
				"patchline" : 				{
					"destination" : [ "obj-1", 0 ],
					"source" : [ "obj-2", 0 ]
				}

			}
, 			{
				"patchline" : 				{
					"destination" : [ "obj-11", 0 ],
					"source" : [ "obj-20", 0 ]
				}

			}
, 			{
				"patchline" : 				{
					"destination" : [ "obj-11", 0 ],
					"source" : [ "obj-21", 0 ]
				}

			}
, 			{
				"patchline" : 				{
					"destination" : [ "obj-11", 0 ],
					"source" : [ "obj-22", 0 ]
				}

			}
, 			{
				"patchline" : 				{
					"destination" : [ "obj-11", 0 ],
					"source" : [ "obj-23", 0 ]
				}

			}
, 			{
				"patchline" : 				{
					"destination" : [ "obj-11", 0 ],
					"source" : [ "obj-24", 0 ]
				}

			}
, 			{
				"patchline" : 				{
					"destination" : [ "obj-11", 0 ],
					"source" : [ "obj-25", 0 ]
				}

			}
, 			{
				"patchline" : 				{
					"destination" : [ "obj-11", 0 ],
					"source" : [ "obj-26", 0 ]
				}

			}
, 			{
				"patchline" : 				{
					"destination" : [ "obj-11", 0 ],
					"source" : [ "obj-27", 0 ]
				}

			}
, 			{
				"patchline" : 				{
					"destination" : [ "obj-11", 0 ],
					"source" : [ "obj-28", 0 ]
				}

			}
, 			{
				"patchline" : 				{
					"destination" : [ "obj-11", 0 ],
					"source" : [ "obj-29", 0 ]
				}

			}
, 			{
				"patchline" : 				{
					"destination" : [ "obj-24", 0 ],
					"source" : [ "obj-3", 1 ]
				}

			}
, 			{
				"patchline" : 				{
					"destination" : [ "obj-11", 0 ],
					"source" : [ "obj-30", 0 ]
				}

			}
, 			{
				"patchline" : 				{
					"destination" : [ "obj-11", 0 ],
					"source" : [ "obj-31", 0 ]
				}

			}
, 			{
				"patchline" : 				{
					"destination" : [ "obj-11", 0 ],
					"source" : [ "obj-32", 0 ]
				}

			}
, 			{
				"patchline" : 				{
					"destination" : [ "obj-11", 0 ],
					"source" : [ "obj-33", 0 ]
				}

			}
, 			{
				"patchline" : 				{
					"destination" : [ "obj-9", 1 ],
					"source" : [ "obj-34", 0 ]
				}

			}
, 			{
				"patchline" : 				{
					"destination" : [ "obj-11", 0 ],
					"source" : [ "obj-35", 1 ]
				}

			}
, 			{
				"patchline" : 				{
					"destination" : [ "obj-34", 0 ],
					"source" : [ "obj-35", 0 ]
				}

			}
, 			{
				"patchline" : 				{
					"destination" : [ "obj-9", 1 ],
					"source" : [ "obj-36", 0 ]
				}

			}
, 			{
				"patchline" : 				{
					"destination" : [ "obj-11", 0 ],
					"source" : [ "obj-37", 1 ]
				}

			}
, 			{
				"patchline" : 				{
					"destination" : [ "obj-36", 0 ],
					"source" : [ "obj-37", 0 ]
				}

			}
, 			{
				"patchline" : 				{
					"destination" : [ "obj-9", 1 ],
					"source" : [ "obj-38", 0 ]
				}

			}
, 			{
				"patchline" : 				{
					"destination" : [ "obj-11", 0 ],
					"source" : [ "obj-39", 1 ]
				}

			}
, 			{
				"patchline" : 				{
					"destination" : [ "obj-38", 0 ],
					"source" : [ "obj-39", 0 ]
				}

			}
, 			{
				"patchline" : 				{
					"destination" : [ "obj-3", 0 ],
					"source" : [ "obj-4", 0 ]
				}

			}
, 			{
				"patchline" : 				{
					"destination" : [ "obj-9", 1 ],
					"source" : [ "obj-42", 0 ]
				}

			}
, 			{
				"patchline" : 				{
					"destination" : [ "obj-11", 0 ],
					"source" : [ "obj-43", 1 ]
				}

			}
, 			{
				"patchline" : 				{
					"destination" : [ "obj-42", 0 ],
					"source" : [ "obj-43", 0 ]
				}

			}
, 			{
				"patchline" : 				{
					"destination" : [ "obj-9", 1 ],
					"source" : [ "obj-44", 0 ]
				}

			}
, 			{
				"patchline" : 				{
					"destination" : [ "obj-11", 0 ],
					"source" : [ "obj-45", 1 ]
				}

			}
, 			{
				"patchline" : 				{
					"destination" : [ "obj-44", 0 ],
					"source" : [ "obj-45", 0 ]
				}

			}
, 			{
				"patchline" : 				{
					"destination" : [ "obj-9", 1 ],
					"source" : [ "obj-46", 0 ]
				}

			}
, 			{
				"patchline" : 				{
					"destination" : [ "obj-11", 0 ],
					"source" : [ "obj-47", 1 ]
				}

			}
, 			{
				"patchline" : 				{
					"destination" : [ "obj-46", 0 ],
					"source" : [ "obj-47", 0 ]
				}

			}
, 			{
				"patchline" : 				{
					"destination" : [ "obj-9", 1 ],
					"source" : [ "obj-48", 0 ]
				}

			}
, 			{
				"patchline" : 				{
					"destination" : [ "obj-11", 0 ],
					"source" : [ "obj-49", 1 ]
				}

			}
, 			{
				"patchline" : 				{
					"destination" : [ "obj-48", 0 ],
					"source" : [ "obj-49", 0 ]
				}

			}
, 			{
				"patchline" : 				{
					"destination" : [ "obj-9", 1 ],
					"source" : [ "obj-50", 0 ]
				}

			}
, 			{
				"patchline" : 				{
					"destination" : [ "obj-11", 0 ],
					"source" : [ "obj-51", 1 ]
				}

			}
, 			{
				"patchline" : 				{
					"destination" : [ "obj-50", 0 ],
					"source" : [ "obj-51", 0 ]
				}

			}
, 			{
				"patchline" : 				{
					"destination" : [ "obj-9", 1 ],
					"source" : [ "obj-52", 0 ]
				}

			}
, 			{
				"patchline" : 				{
					"destination" : [ "obj-11", 0 ],
					"source" : [ "obj-53", 1 ]
				}

			}
, 			{
				"patchline" : 				{
					"destination" : [ "obj-52", 0 ],
					"source" : [ "obj-53", 0 ]
				}

			}
, 			{
				"patchline" : 				{
					"destination" : [ "obj-9", 1 ],
					"source" : [ "obj-54", 0 ]
				}

			}
, 			{
				"patchline" : 				{
					"destination" : [ "obj-11", 0 ],
					"source" : [ "obj-55", 1 ]
				}

			}
, 			{
				"patchline" : 				{
					"destination" : [ "obj-54", 0 ],
					"order" : 1,
					"source" : [ "obj-55", 0 ]
				}

			}
, 			{
				"patchline" : 				{
					"destination" : [ "obj-56", 0 ],
					"order" : 0,
					"source" : [ "obj-55", 0 ]
				}

			}
, 			{
				"patchline" : 				{
					"destination" : [ "obj-9", 1 ],
					"source" : [ "obj-56", 0 ]
				}

			}
, 			{
				"patchline" : 				{
					"destination" : [ "obj-9", 1 ],
					"source" : [ "obj-57", 0 ]
				}

			}
, 			{
				"patchline" : 				{
					"destination" : [ "obj-5", 0 ],
					"source" : [ "obj-6", 0 ]
				}

			}
, 			{
				"patchline" : 				{
					"destination" : [ "obj-11", 0 ],
					"source" : [ "obj-66", 0 ]
				}

			}
, 			{
				"patchline" : 				{
					"destination" : [ "obj-9", 1 ],
					"source" : [ "obj-67", 0 ]
				}

			}
, 			{
				"patchline" : 				{
					"destination" : [ "obj-9", 1 ],
					"source" : [ "obj-68", 0 ]
				}

			}
, 			{
				"patchline" : 				{
					"destination" : [ "obj-11", 0 ],
					"source" : [ "obj-69", 1 ]
				}

			}
, 			{
				"patchline" : 				{
					"destination" : [ "obj-67", 0 ],
					"order" : 0,
					"source" : [ "obj-69", 0 ]
				}

			}
, 			{
				"patchline" : 				{
					"destination" : [ "obj-68", 0 ],
					"order" : 1,
					"source" : [ "obj-69", 0 ]
				}

			}
, 			{
				"patchline" : 				{
					"destination" : [ "obj-9", 0 ],
					"source" : [ "obj-7", 0 ]
				}

			}
, 			{
				"patchline" : 				{
					"destination" : [ "obj-57", 0 ],
					"source" : [ "obj-8", 0 ]
				}

			}
, 			{
				"patchline" : 				{
					"destination" : [ "obj-83", 0 ],
					"source" : [ "obj-81", 0 ]
				}

			}
, 			{
				"patchline" : 				{
					"destination" : [ "obj-84", 0 ],
					"source" : [ "obj-85", 0 ]
				}

			}
, 			{
				"patchline" : 				{
					"destination" : [ "obj-74", 0 ],
					"source" : [ "obj-86", 0 ]
				}

			}
, 			{
				"patchline" : 				{
					"destination" : [ "obj-80", 0 ],
					"source" : [ "obj-87", 0 ]
				}

			}
, 			{
				"patchline" : 				{
					"destination" : [ "obj-10", 0 ],
					"source" : [ "obj-9", 0 ]
				}

			}
 ],
		"parameters" : 		{
			"obj-1::obj-2" : [ "live.tab", "live.tab", 0 ],
			"obj-1::obj-42" : [ "live.tab[2]", "live.tab", 0 ],
			"obj-8" : [ "live.tab[4]", "live.tab", 0 ],
			"obj-9::obj-8" : [ "live.tab[3]", "live.tab", 0 ],
			"parameterbanks" : 			{

			}
,
			"parameter_overrides" : 			{
				"obj-9::obj-8" : 				{
					"parameter_longname" : "live.tab[3]"
				}

			}
,
			"inherited_shortname" : 1
		}
,
		"dependency_cache" : [ 			{
				"name" : "Video-Source.maxpat",
				"bootpath" : "~/synthesis-git/Media-Choreography-Lower-Division/common/common/patchers",
				"patcherrelativepath" : "../../../../../common/common/patchers",
				"type" : "JSON",
				"implicit" : 1
			}
, 			{
				"name" : "video_movie.maxpat",
				"bootpath" : "~/synthesis-git/Media-Choreography-Lower-Division/common/common/patchers",
				"patcherrelativepath" : "../../../../../common/common/patchers",
				"type" : "JSON",
				"implicit" : 1
			}
, 			{
				"name" : "thru.maxpat",
				"bootpath" : "C74:/patchers/m4l/Pluggo for Live resources/patches",
				"type" : "JSON",
				"implicit" : 1
			}
, 			{
				"name" : "video_camera.maxpat",
				"bootpath" : "~/synthesis-git/Media-Choreography-Lower-Division/common/common/patchers",
				"patcherrelativepath" : "../../../../../common/common/patchers",
				"type" : "JSON",
				"implicit" : 1
			}
, 			{
				"name" : "video_syphon.maxpat",
				"bootpath" : "~/synthesis-git/Media-Choreography-Lower-Division/common/common/patchers",
				"patcherrelativepath" : "../../../../../common/common/patchers",
				"type" : "JSON",
				"implicit" : 1
			}
, 			{
				"name" : "video_ndi.maxpat",
				"bootpath" : "~/synthesis-git/Media-Choreography-Lower-Division/common/common/patchers",
				"patcherrelativepath" : "../../../../../common/common/patchers",
				"type" : "JSON",
				"implicit" : 1
			}
, 			{
				"name" : "cfilter.maxpat",
				"bootpath" : "~/synthesis-git/Media-Choreography-Lower-Division/Fall-2021/Unit 2/Unit2-Exercises/Unit2-Exercises/patchers",
				"patcherrelativepath" : ".",
				"type" : "JSON",
				"implicit" : 1
			}
, 			{
				"name" : "sc.texture.rgb2hsl.maxpat",
				"bootpath" : "~/Documents/Max 7/Packages/SC/patchers/video/texture",
				"patcherrelativepath" : "../../../../../../../Documents/Max 7/Packages/SC/patchers/video/texture",
				"type" : "JSON",
				"implicit" : 1
			}
, 			{
				"name" : "bypass_dummy.genjit",
				"bootpath" : "~/Documents/Max 7/Packages/SC/code",
				"patcherrelativepath" : "../../../../../../../Documents/Max 7/Packages/SC/code",
				"type" : "gJIT",
				"implicit" : 1
			}
, 			{
				"name" : "sc.texture.hsl2rgb.maxpat",
				"bootpath" : "~/Documents/Max 7/Packages/SC/patchers/video/texture",
				"patcherrelativepath" : "../../../../../../../Documents/Max 7/Packages/SC/patchers/video/texture",
				"type" : "JSON",
				"implicit" : 1
			}
, 			{
				"name" : "RGB_color_solid_cube.png",
				"bootpath" : "~/synthesis-git/Media-Choreography-Lower-Division/Fall-2021/Unit 2/Unit2-Exercises/Unit2-Exercises/media",
				"patcherrelativepath" : "../media",
				"type" : "PNG",
				"implicit" : 1
			}
, 			{
				"name" : "hsv-cylinder.png",
				"bootpath" : "~/synthesis-git/Media-Choreography-Lower-Division/Fall-2021/Unit 2/Unit2-Exercises/Unit2-Exercises/media",
				"patcherrelativepath" : "../media",
				"type" : "PNG",
				"implicit" : 1
			}
, 			{
				"name" : "jit.gl.syphonclient.mxo",
				"type" : "iLaX"
			}
 ],
		"autosave" : 0,
		"styles" : [ 			{
				"name" : "Connor",
				"default" : 				{
					"fontface" : [ 1 ],
					"textjustification" : [ 0 ],
					"fontsize" : [ 14.0 ],
					"bgcolor" : [ 0.133333333333333, 0.627450980392157, 0.627450980392157, 1.0 ],
					"bgfillcolor" : 					{
						"type" : "color",
						"color" : [ 0.011764705882353, 0.36078431372549, 0.662745098039216, 1.0 ],
						"color1" : [ 0.301961, 0.301961, 0.301961, 1.0 ],
						"color2" : [ 0.2, 0.2, 0.2, 1.0 ],
						"angle" : 270.0,
						"proportion" : 0.5,
						"autogradient" : 0.0
					}
,
					"fontname" : [ "Monaco" ],
					"color" : [ 0.070588235294118, 0.890196078431372, 0.996078431372549, 1.0 ],
					"accentcolor" : [ 0.086274509803922, 0.003921568627451, 0.588235294117647, 1.0 ]
				}
,
				"parentstyle" : "",
				"multi" : 0
			}
 ]
	}

}
