{
	"patcher" : 	{
		"fileversion" : 1,
		"appversion" : 		{
			"major" : 8,
			"minor" : 1,
			"revision" : 5,
			"architecture" : "x64",
			"modernui" : 1
		}
,
		"classnamespace" : "box",
		"rect" : [ 138.0, 111.0, 256.0, 100.0 ],
		"bglocked" : 0,
		"openinpresentation" : 1,
		"default_fontsize" : 12.0,
		"default_fontface" : 0,
		"default_fontname" : "Arial",
		"gridonopen" : 1,
		"gridsize" : [ 15.0, 15.0 ],
		"gridsnaponopen" : 1,
		"objectsnaponopen" : 1,
		"statusbarvisible" : 2,
		"toolbarvisible" : 1,
		"lefttoolbarpinned" : 0,
		"toptoolbarpinned" : 0,
		"righttoolbarpinned" : 0,
		"bottomtoolbarpinned" : 0,
		"toolbars_unpinned_last_save" : 0,
		"tallnewobj" : 0,
		"boxanimatetime" : 200,
		"enablehscroll" : 0,
		"enablevscroll" : 0,
		"devicewidth" : 0.0,
		"description" : "",
		"digest" : "",
		"tags" : "",
		"style" : "",
		"subpatcher_template" : "",
		"assistshowspatchername" : 0,
		"boxes" : [ 			{
				"box" : 				{
					"bgcolor" : [ 0.549019607843137, 0.113725490196078, 0.250980392156863, 1.0 ],
					"fontface" : 1,
					"fontsize" : 14.0,
					"id" : "obj-13",
					"maxclass" : "textbutton",
					"numinlets" : 1,
					"numoutlets" : 3,
					"outlettype" : [ "", "", "int" ],
					"parameter_enable" : 0,
					"patching_rect" : [ 78.0, 210.0, 100.0, 20.0 ],
					"presentation" : 1,
					"presentation_rect" : [ 4.0, 72.0, 243.0, 20.0 ],
					"text" : "Configure Audio",
					"textoncolor" : [ 0.996078431372549, 0.996078431372549, 0.996078431372549, 1.0 ],
					"textovercolor" : [ 1.0, 0.776470588235294, 0.152941176470588, 1.0 ],
					"usetextovercolor" : 1
				}

			}
, 			{
				"box" : 				{
					"id" : "obj-5",
					"maxclass" : "newobj",
					"numinlets" : 1,
					"numoutlets" : 0,
					"patching_rect" : [ 78.0, 243.0, 128.0, 22.0 ],
					"text" : "\"Audio Status.maxpat\""
				}

			}
, 			{
				"box" : 				{
					"id" : "obj-15",
					"linecount" : 2,
					"maxclass" : "comment",
					"numinlets" : 1,
					"numoutlets" : 0,
					"patching_rect" : [ 323.0, 128.0, 150.0, 33.0 ],
					"presentation" : 1,
					"presentation_linecount" : 2,
					"presentation_rect" : [ 4.0, 37.0, 150.0, 33.0 ],
					"text" : "Choose the Blackhole Audio Channels",
					"textcolor" : [ 0.996078431372549, 0.996078431372549, 0.996078431372549, 1.0 ]
				}

			}
, 			{
				"box" : 				{
					"fontface" : 1,
					"fontsize" : 24.0,
					"id" : "obj-10",
					"maxclass" : "comment",
					"numinlets" : 1,
					"numoutlets" : 0,
					"patching_rect" : [ 209.0, 188.0, 307.0, 33.0 ],
					"presentation" : 1,
					"presentation_rect" : [ -2.0, 2.0, 257.0, 33.0 ],
					"text" : "Dante 2 Blackhole",
					"textcolor" : [ 0.996078431372549, 0.996078431372549, 0.996078431372549, 1.0 ],
					"textjustification" : 1
				}

			}
, 			{
				"box" : 				{
					"id" : "obj-14",
					"maxclass" : "message",
					"numinlets" : 2,
					"numoutlets" : 1,
					"outlettype" : [ "" ],
					"patching_rect" : [ 20.0, 9.0, 181.0, 22.0 ],
					"text" : "window flags grow, window exec"
				}

			}
, 			{
				"box" : 				{
					"id" : "obj-12",
					"maxclass" : "newobj",
					"numinlets" : 1,
					"numoutlets" : 1,
					"outlettype" : [ "bang" ],
					"patching_rect" : [ 288.0, 19.0, 58.0, 22.0 ],
					"text" : "loadbang"
				}

			}
, 			{
				"box" : 				{
					"id" : "obj-11",
					"maxclass" : "message",
					"numinlets" : 2,
					"numoutlets" : 1,
					"outlettype" : [ "" ],
					"patching_rect" : [ 288.0, 48.0, 195.0, 22.0 ],
					"text" : "window flags nogrow, window exec"
				}

			}
, 			{
				"box" : 				{
					"id" : "obj-9",
					"maxclass" : "newobj",
					"numinlets" : 1,
					"numoutlets" : 2,
					"outlettype" : [ "", "" ],
					"patching_rect" : [ 288.0, 72.0, 67.0, 22.0 ],
					"save" : [ "#N", "thispatcher", ";", "#Q", "end", ";" ],
					"text" : "thispatcher"
				}

			}
, 			{
				"box" : 				{
					"id" : "obj-8",
					"maxclass" : "newobj",
					"numinlets" : 1,
					"numoutlets" : 0,
					"patching_rect" : [ 31.0, 162.0, 67.0, 22.0 ],
					"saved_object_attributes" : 					{
						"allwindowsactive" : 0,
						"appicon_mac" : "Seagate Backup Plus Drive:/Synthesis/Media_Choreography_Course/Media Choreography Lower-Division/Fall 2021/Audio Mixers/Dante2Blackhole/other/a2dicon.icns",
						"appicon_win" : "",
						"audiosupport" : 1,
						"bundleidentifier" : "org.asu.ame.d2b",
						"cantclosetoplevelpatchers" : 1,
						"cefsupport" : 0,
						"copysupport" : 0,
						"database" : 0,
						"extensions" : 1,
						"gensupport" : 1,
						"midisupport" : 1,
						"noloadbangdefeating" : 0,
						"overdrive" : 0,
						"preffilename" : "Dante 2 Blackhole Preferences",
						"searchformissingfiles" : 1,
						"statusvisible" : 0,
						"usesearchpath" : 0
					}
,
					"text" : "standalone"
				}

			}
, 			{
				"box" : 				{
					"id" : "obj-7",
					"maxclass" : "newobj",
					"numinlets" : 16,
					"numoutlets" : 0,
					"patching_rect" : [ 267.0, 254.0, 241.0, 22.0 ],
					"text" : "dac~ 1 2 3 4 5 6 7 8 9 10 11 12 13 14 15 16"
				}

			}
, 			{
				"box" : 				{
					"id" : "obj-6",
					"maxclass" : "newobj",
					"numinlets" : 1,
					"numoutlets" : 16,
					"outlettype" : [ "signal", "signal", "signal", "signal", "signal", "signal", "signal", "signal", "signal", "signal", "signal", "signal", "signal", "signal", "signal", "signal" ],
					"patching_rect" : [ 280.0, 108.0, 241.0, 22.0 ],
					"text" : "adc~ 1 2 3 4 5 6 7 8 9 10 11 12 13 14 15 16"
				}

			}
, 			{
				"box" : 				{
					"id" : "obj-3",
					"maxclass" : "newobj",
					"numinlets" : 1,
					"numoutlets" : 1,
					"outlettype" : [ "" ],
					"patching_rect" : [ 99.0, 40.0, 70.0, 22.0 ],
					"text" : "loadmess 0"
				}

			}
, 			{
				"box" : 				{
					"align" : 1,
					"bgcolor" : [ 0.549019607843137, 0.113725490196078, 0.250980392156863, 1.0 ],
					"bgfillcolor_angle" : 270.0,
					"bgfillcolor_autogradient" : 0.0,
					"bgfillcolor_color" : [ 0.549019607843137, 0.113725490196078, 0.250980392156863, 1.0 ],
					"bgfillcolor_color1" : [ 0.301961, 0.301961, 0.301961, 1.0 ],
					"bgfillcolor_color2" : [ 0.2, 0.2, 0.2, 1.0 ],
					"bgfillcolor_proportion" : 0.5,
					"bgfillcolor_type" : "color",
					"fontsize" : 18.0,
					"id" : "obj-2",
					"items" : [ "1 - 16", ",", "17 - 32", ",", "33 - 48", ",", "49 - 64" ],
					"maxclass" : "umenu",
					"numinlets" : 1,
					"numoutlets" : 3,
					"outlettype" : [ "int", "", "" ],
					"parameter_enable" : 0,
					"patching_rect" : [ 99.0, 67.0, 132.0, 29.0 ],
					"presentation" : 1,
					"presentation_rect" : [ 135.0, 39.0, 112.0, 29.0 ],
					"textjustification" : 1
				}

			}
, 			{
				"box" : 				{
					"coll_data" : 					{
						"count" : 4,
						"data" : [ 							{
								"key" : 0,
								"value" : [ 1, 2, 3, 4, 5, 6, 7, 8, 9, 10, 11, 12, 13, 14, 15, 16 ]
							}
, 							{
								"key" : 1,
								"value" : [ 17, 18, 19, 20, 21, 22, 23, 24, 25, 26, 27, 28, 29, 30, 31, 32 ]
							}
, 							{
								"key" : 2,
								"value" : [ 33, 34, 35, 36, 37, 38, 39, 40, 41, 42, 43, 44, 45, 46, 47, 48 ]
							}
, 							{
								"key" : 3,
								"value" : [ 49, 50, 51, 52, 53, 54, 55, 56, 57, 58, 59, 60, 61, 62, 63, 64 ]
							}
 ]
					}
,
					"id" : "obj-1",
					"maxclass" : "newobj",
					"numinlets" : 1,
					"numoutlets" : 4,
					"outlettype" : [ "", "", "", "" ],
					"patching_rect" : [ 99.0, 108.0, 166.0, 22.0 ],
					"saved_object_attributes" : 					{
						"embed" : 1,
						"precision" : 6
					}
,
					"text" : "coll inputchannels @embed 1"
				}

			}
, 			{
				"box" : 				{
					"angle" : 270.0,
					"bgcolor" : [ 0.0, 0.0, 0.0, 1.0 ],
					"border" : 3,
					"bordercolor" : [ 1.0, 0.776470588235294, 0.152941176470588, 1.0 ],
					"id" : "obj-4",
					"maxclass" : "panel",
					"mode" : 0,
					"numinlets" : 1,
					"numoutlets" : 0,
					"patching_rect" : [ 224.0, 213.0, 128.0, 128.0 ],
					"presentation" : 1,
					"presentation_rect" : [ -2.0, -2.0, 257.0, 101.0 ],
					"proportion" : 0.5,
					"rounded" : 0
				}

			}
 ],
		"lines" : [ 			{
				"patchline" : 				{
					"destination" : [ "obj-7", 0 ],
					"source" : [ "obj-1", 0 ]
				}

			}
, 			{
				"patchline" : 				{
					"destination" : [ "obj-9", 0 ],
					"source" : [ "obj-11", 0 ]
				}

			}
, 			{
				"patchline" : 				{
					"destination" : [ "obj-11", 0 ],
					"source" : [ "obj-12", 0 ]
				}

			}
, 			{
				"patchline" : 				{
					"destination" : [ "obj-5", 0 ],
					"source" : [ "obj-13", 0 ]
				}

			}
, 			{
				"patchline" : 				{
					"destination" : [ "obj-9", 0 ],
					"source" : [ "obj-14", 0 ]
				}

			}
, 			{
				"patchline" : 				{
					"destination" : [ "obj-1", 0 ],
					"source" : [ "obj-2", 0 ]
				}

			}
, 			{
				"patchline" : 				{
					"destination" : [ "obj-2", 0 ],
					"source" : [ "obj-3", 0 ]
				}

			}
, 			{
				"patchline" : 				{
					"destination" : [ "obj-7", 15 ],
					"source" : [ "obj-6", 15 ]
				}

			}
, 			{
				"patchline" : 				{
					"destination" : [ "obj-7", 14 ],
					"source" : [ "obj-6", 14 ]
				}

			}
, 			{
				"patchline" : 				{
					"destination" : [ "obj-7", 13 ],
					"source" : [ "obj-6", 13 ]
				}

			}
, 			{
				"patchline" : 				{
					"destination" : [ "obj-7", 12 ],
					"source" : [ "obj-6", 12 ]
				}

			}
, 			{
				"patchline" : 				{
					"destination" : [ "obj-7", 11 ],
					"source" : [ "obj-6", 11 ]
				}

			}
, 			{
				"patchline" : 				{
					"destination" : [ "obj-7", 10 ],
					"source" : [ "obj-6", 10 ]
				}

			}
, 			{
				"patchline" : 				{
					"destination" : [ "obj-7", 9 ],
					"source" : [ "obj-6", 9 ]
				}

			}
, 			{
				"patchline" : 				{
					"destination" : [ "obj-7", 8 ],
					"source" : [ "obj-6", 8 ]
				}

			}
, 			{
				"patchline" : 				{
					"destination" : [ "obj-7", 7 ],
					"source" : [ "obj-6", 7 ]
				}

			}
, 			{
				"patchline" : 				{
					"destination" : [ "obj-7", 6 ],
					"source" : [ "obj-6", 6 ]
				}

			}
, 			{
				"patchline" : 				{
					"destination" : [ "obj-7", 5 ],
					"source" : [ "obj-6", 5 ]
				}

			}
, 			{
				"patchline" : 				{
					"destination" : [ "obj-7", 4 ],
					"source" : [ "obj-6", 4 ]
				}

			}
, 			{
				"patchline" : 				{
					"destination" : [ "obj-7", 3 ],
					"source" : [ "obj-6", 3 ]
				}

			}
, 			{
				"patchline" : 				{
					"destination" : [ "obj-7", 2 ],
					"source" : [ "obj-6", 2 ]
				}

			}
, 			{
				"patchline" : 				{
					"destination" : [ "obj-7", 1 ],
					"source" : [ "obj-6", 1 ]
				}

			}
, 			{
				"patchline" : 				{
					"destination" : [ "obj-7", 0 ],
					"source" : [ "obj-6", 0 ]
				}

			}
 ],
		"parameters" : 		{
			"obj-5::obj-22" : [ "live.numbox", "live.numbox", 0 ],
			"parameterbanks" : 			{

			}
,
			"inherited_shortname" : 1
		}
,
		"dependency_cache" : [ 			{
				"name" : "Audio Status.maxpat",
				"bootpath" : "/Volumes/Seagate Backup Plus Drive/Synthesis/Media_Choreography_Course/Media Choreography Lower-Division/Fall 2021/Audio Mixers/Dante2Blackhole/patchers",
				"patcherrelativepath" : ".",
				"type" : "JSON",
				"implicit" : 1
			}
, 			{
				"name" : "interfacecolor.js",
				"bootpath" : "C74:/interfaces",
				"type" : "TEXT",
				"implicit" : 1
			}
 ],
		"autosave" : 0
	}

}
